<svg id="Layer_1" data-name="Layer 1" xmlns="http://www.w3.org/2000/svg" viewBox="0 0 57 76"><title>modified_a_2</title><path d="M56.51,29.83q-.12-14.56-7.06-22.14T28.5,0Q14.61,0,7.55,7.69A23.18,23.18,0,0,0,3.49,14L14.12,19c2.39-5.73,7-8.62,14-8.62q13.65,0,15.56,14.7-6.16-4-15.18-4-14,0-21.14,9.59A30.74,30.74,0,0,0,3.15,38.8c-2,5.75-1.91,15.1,0,19.52a30.43,30.43,0,0,0,4.2,8.09Q14.49,76,28.5,76q9.74,0,16.14-4.63V76H56.51V29.83Zm-28,34.94c-8.54,0-14.59-5.27-14.59-16.26S20,32.35,28.49,32.35s15.59,5.13,15.59,16.26S37,64.77,28.51,64.77Z"/></svg>